<?xml version="1.0" standalone="no"?>
<!DOCTYPE svg PUBLIC "-//W3C//DTD SVG 1.1//EN" "http://www.w3.org/Graphics/SVG/1.1/DTD/svg11.dtd" >
<svg xmlns="http://www.w3.org/2000/svg">
<metadata></metadata>
<defs>
<font id="eth_largeexpanded_black" horiz-adv-x="1118" >
<font-face units-per-em="2048" ascent="1536" descent="-512" />
<missing-glyph horiz-adv-x="657" />
<glyph horiz-adv-x="2048" />
<glyph horiz-adv-x="2048" />
<glyph unicode="&#xd;" horiz-adv-x="657" />
<glyph unicode=" "  horiz-adv-x="657" />
<glyph unicode="&#x09;" horiz-adv-x="657" />
<glyph unicode="&#xa0;" horiz-adv-x="657" />
<glyph unicode="!" horiz-adv-x="520" d="M129 109q0 53 39 88.5t100 35.5q63 0 104.5 -35.5t41.5 -88.5t-41 -89t-105 -36q-59 0 -99 36t-40 89zM135 1217h260l-22 -844h-215z" />
<glyph unicode="&#x22;" horiz-adv-x="819" d="M102 1270h226v-383h-207zM430 1270h225v-383h-206z" />
<glyph unicode="&#x26;" horiz-adv-x="1712" d="M80 1225h860v-178h-643v-273h1352v-180h-324v-594h-217v594h-811v-416h647v-178h-862z" />
<glyph unicode="'" horiz-adv-x="409" d="M0 844v383h223l-18 -383h-205z" />
<glyph unicode="(" horiz-adv-x="471" d="M-20 600q0 147 45 264t98 203q41 61 85 107.5t64 64.5l21 21h278l-194 -193q-10 -10 -30.5 -36.5t-47.5 -65.5l4 4q-39 -63 -72.5 -155.5t-33.5 -213.5q0 -117 32.5 -219t73.5 -180h-2q14 -27 47 -69t76 -87t90 -89t92 -75l-315 8q-12 4 -21 11q-8 4 -15 8t-7 8 q-23 27 -59.5 78t-69.5 108v2q-53 98 -96 224.5t-43 271.5z" />
<glyph unicode=")" horiz-adv-x="507" d="M-133 -119q45 31 92 75t90 89t76 87t47 69h-2q41 78 72.5 180t31.5 219q0 121 -32.5 213t-71.5 154l2 -2q-29 39 -48.5 65.5t-27.5 36.5l-194 193h278l23 -23q18 -16 60 -61.5t85 -108.5q53 -86 99.5 -204t46.5 -263t-43 -271t-97 -225v-2q-35 -59 -72.5 -111t-58.5 -77 l-33 -33h-323z" />
<glyph unicode="," horiz-adv-x="446" d="M-63 -231l161 532h269l-267 -532h-163z" />
<glyph unicode="-" horiz-adv-x="512" d="M8 682h490v-178h-488z" />
<glyph unicode="." horiz-adv-x="624" d="M170 109q-2 53 38 88.5t101 35.5q63 0 104.5 -35.5t43.5 -88.5q-2 -53 -43 -89t-105 -36q-61 0 -101 36t-38 89z" />
<glyph unicode="/" horiz-adv-x="626" d="M-4 0l391 1227h219l-399 -1227h-211z" />
<glyph unicode="0" horiz-adv-x="1028" d="M78 606q-2 297 99.5 462t328.5 165t328.5 -165t103.5 -462q0 -147 -25.5 -264t-78 -196.5t-134.5 -122.5t-194 -43q-227 0 -327.5 165.5t-100.5 460.5zM295 606q-2 -215 47 -333.5t164 -118.5t164 118.5t51 333.5q-2 217 -51 336t-164 119t-164 -119t-47 -336z" />
<glyph unicode="1" horiz-adv-x="755" d="M135 825v215l279 172h164v-1212h-216v965z" />
<glyph unicode="2" horiz-adv-x="1024" d="M49 975q33 53 76 100t97 82t120 55.5t139 20.5q72 0 144.5 -22.5t131 -70.5t95.5 -124t37 -182q0 -57 -14.5 -106.5t-46 -98.5t-81 -103.5t-118.5 -117.5q-78 -70 -136.5 -123.5t-111.5 -106.5h557v-178h-877v131q72 70 144 141q61 59 134 130t138 130l39 39l-2 -2 q29 27 57.5 53.5t52 58.5t38 68.5t14.5 84.5q0 104 -56.5 162.5t-138.5 58.5q-23 0 -50.5 -5.5t-58 -21.5t-61 -46t-59.5 -77z" />
<glyph unicode="3" horiz-adv-x="1024" d="M29 229l182 107q72 -88 149.5 -134t149.5 -46q20 0 57 6t74 25.5t63.5 56.5t26.5 98q0 72 -39 116t-91 67.5t-104.5 30.5t-80.5 7h-148v180h154q33 0 77 12.5t84 36t66.5 55.5t26.5 71q0 76 -50.5 112.5t-121.5 36.5q-59 0 -107.5 -16.5t-84.5 -38t-60.5 -45t-38.5 -37.5 l-158 90q39 59 105 106q55 41 141 75t213 34q27 0 67 -3t84 -14.5t87 -32t76.5 -55t55 -87t21.5 -125.5q0 -41 -22.5 -83t-59.5 -77t-82 -59.5t-88 -30.5q61 -6 116.5 -38t97.5 -79t65.5 -103.5t23.5 -113.5q0 -72 -29.5 -135.5t-88 -112.5t-144.5 -77.5t-200 -28.5 q-111 0 -196 38.5t-144 85.5q-70 53 -125 125z" />
<glyph unicode="4" horiz-adv-x="1044" d="M76 330v139l596 743h186v-706h107v-176h-107v-330h-217v330h-565zM362 506h279v356q-39 -47 -76 -95t-73 -95z" />
<glyph unicode="5" horiz-adv-x="1062" d="M66 225l167 105q66 -90 145 -131t154 -41q35 0 74 14t72 42t54.5 70t21.5 97q0 57 -20.5 99t-53.5 71t-75 43t-87 14q-72 0 -133 -14t-105 -31.5t-70 -33t-26 -17.5l-4 698h740v-180h-537q-6 -68 -9 -132t-7 -148q23 10 45 18q20 6 46.5 12t59.5 6q72 0 151 -22.5 t145.5 -71.5t109.5 -124.5t43 -182.5q0 -106 -42 -183t-106.5 -127t-141.5 -74t-147 -24q-135 0 -252.5 60.5t-211.5 187.5z" />
<glyph unicode="6" horiz-adv-x="1017" d="M76 561q0 176 37 303t99 209t146 121t181 39q106 0 185 -41t132 -88q61 -57 102 -129l-190 -74q-27 43 -61 78q-29 29 -72 53.5t-96 24.5q-61 0 -110.5 -42t-82.5 -105.5t-50 -135.5t-15 -129q18 31 46.5 54.5t62.5 39t70.5 23.5t69.5 8q76 0 150 -20.5t132 -66.5 t94 -120t36 -178q0 -102 -38 -179t-97 -127t-134 -74.5t-151 -24.5q-74 0 -151.5 23.5t-143 87t-108.5 177t-43 293.5zM305 416l5 -41t26.5 -89t64.5 -88t121 -40q86 0 145.5 61.5t59.5 165.5t-55.5 154.5t-141.5 50.5q-76 0 -119.5 -26.5t-67.5 -59.5t-31 -60z" />
<glyph unicode="7" horiz-adv-x="919" d="M68 1032v180h819v-129l-541 -1083h-231l518 1032h-565z" />
<glyph unicode="8" horiz-adv-x="1013" d="M61 360q0 55 20.5 103.5t53.5 87.5t74 65.5t84 36.5q-43 10 -81 34t-65.5 57.5t-43 73.5t-15.5 81q0 72 28.5 133.5t83 105.5t131.5 69.5t173 25.5t173 -25.5t130 -69.5t82 -105.5t29 -133.5q0 -43 -19.5 -83t-49.5 -71.5t-65.5 -55t-70.5 -32.5q39 -10 81 -35.5 t76.5 -63.5t57 -88t22.5 -110q0 -111 -47 -184.5t-116.5 -116.5t-146.5 -61t-136 -18t-136 18t-144.5 61t-115 117t-47.5 184zM268 360q0 -23 8.5 -59.5t34 -70t71.5 -58.5t122 -25q74 0 119 25t70.5 58.5t33.5 70.5t8 59q0 59 -29.5 101.5t-69.5 69t-79 39t-55 16.5 q-20 -4 -59.5 -17.5t-78 -40t-67.5 -68.5t-29 -100zM301 899q0 -41 23.5 -72.5t56.5 -54t67.5 -36t55.5 -17.5h2q2 -2 4 -2q20 2 54 16.5t64.5 39t53.5 57t23 69.5q0 78 -58.5 119t-142.5 41q-86 0 -144.5 -41t-58.5 -119z" />
<glyph unicode="9" horiz-adv-x="1054" d="M78 238l188 73q27 -43 62 -78q29 -29 71.5 -53t96.5 -24q61 0 110 42t82 105.5t50.5 134t15.5 129.5q-18 -31 -47 -54.5t-63 -38.5t-70.5 -23.5t-69.5 -8.5q-76 0 -149.5 20.5t-132 66.5t-94.5 120t-36 178q0 102 37 179t97.5 127.5t135 75t150.5 24.5q74 0 152.5 -23.5 t144 -87t107.5 -177.5t42 -294q0 -176 -36.5 -303t-99 -209t-147.5 -120.5t-179 -38.5q-109 0 -186 39.5t-130 89.5q-61 55 -102 129zM307 827q0 -104 55.5 -154t141.5 -50q76 0 120 26.5t67.5 59t30.5 60.5l7 28l-5 41t-26.5 89t-64.5 88t-121 40q-86 0 -145.5 -61.5 t-59.5 -166.5z" />
<glyph unicode=":" horiz-adv-x="624" d="M168 657q0 53 40 89t101 36q63 0 104.5 -35.5t41.5 -89.5q0 -53 -41 -89t-105 -36q-61 0 -101 36t-40 89zM170 109q0 53 39 88.5t100 35.5q63 0 104.5 -35.5t41.5 -88.5t-41 -89t-105 -36q-61 0 -100 36t-39 89z" />
<glyph unicode=";" horiz-adv-x="686" d="M80 -231l162 532h268l-266 -532h-164zM203 657q0 53 41 89t102 36t102 -35.5t41 -89.5q0 -53 -40.5 -89t-102.5 -36q-61 0 -102 36t-41 89z" />
<glyph unicode="?" horiz-adv-x="1013" d="M100 977q10 29 42 78t73 80q43 35 117 64.5t178 29.5q113 0 188 -41h-4q90 -43 133 -105q47 -61 70 -131.5t23 -132.5q0 -47 -12.5 -103.5t-47.5 -115.5q-45 -72 -109.5 -121t-144.5 -77.5t-172 -41t-190 -12.5v176q86 0 145.5 10.5t101 25.5t68.5 32.5t47 30.5h-2 q31 20 51.5 48.5t30.5 59.5q6 25 10 46.5t4 41.5q0 70 -26 123q-29 59 -76 84h4q-18 8 -40.5 14.5t-51.5 6.5q-35 0 -67.5 -7.5t-58.5 -24t-41 -42t-15 -62.5zM231 109q0 53 39 88.5t101 35.5q63 0 104 -35.5t41 -88.5t-41 -89t-104 -36q-59 0 -99.5 36t-40.5 89z" />
<glyph unicode="A" d="M-33 0l602 1380l607 -1380h-232l-145 338h-459q-35 -80 -73 -171t-70 -167h-230zM414 520h311q-23 55 -40 97t-33.5 83t-36 88.5t-46.5 116.5q-37 -92 -75.5 -185t-79.5 -200z" />
<glyph unicode="B" horiz-adv-x="1019" d="M102 1249h367q86 0 164 -18.5t137 -57t94 -102t35 -151.5q0 -98 -34 -152.5t-87 -89.5q35 -16 68 -41t58.5 -60.5t41 -84t15.5 -111.5q0 -117 -45.5 -190.5t-116 -115.5t-154.5 -58.5t-160 -16.5h-381zM324 182h149q268 0 268 207q0 49 -20.5 84t-51 57.5t-68.5 32.5 t-71 10h-206v-391zM324 756h127q47 0 89 9t72.5 28.5t49 50t18.5 76.5q0 45 -19.5 73.5t-49 45t-67.5 22.5t-75 6h-145v-311z" />
<glyph unicode="C" horiz-adv-x="1288" d="M61 623v11q1 126 47 238q48 116 136 209q86 88 207.5 138.5t269.5 50.5q147 0 281.5 -64.5t244.5 -175.5l-137 -147q-96 96 -195.5 150t-193.5 54q-96 0 -178 -36.5t-141.5 -99t-92.5 -147.5t-33 -181t33 -180.5t92.5 -147t141.5 -99t178 -36.5q92 0 192.5 55t194.5 150 l141 -146q-111 -111 -247 -176.5t-283 -65.5q-145 4 -264 51.5t-211 139.5q-88 92 -135.5 209t-47.5 246z" />
<glyph unicode="D" horiz-adv-x="1191" d="M88 1249h377q117 0 232.5 -36.5t207.5 -112.5t149.5 -194t57.5 -279q0 -162 -58.5 -281t-152.5 -195.5t-213 -113.5t-239 -37h-359zM307 182h142q98 0 179 31t140 88t92 140t33 186q0 102 -33 184t-92 138.5t-140 87t-179 30.5h-142v-885z" />
<glyph unicode="E" horiz-adv-x="1187" d="M102 1249h951v-182h-729v-311h665v-183h-665v-391h774v-182h-994z" />
<glyph unicode="F" horiz-adv-x="888" d="M61 1249h803v-182h-583v-311h438v-183h-438v-573h-218z" />
<glyph unicode="G" horiz-adv-x="1394" d="M61 623q0 133 47.5 249.5t137.5 208.5q88 88 207.5 138.5t269.5 50.5q145 0 280.5 -64.5t245.5 -175.5l-137 -147q-96 96 -194.5 150t-194.5 54q-98 0 -179 -36.5t-140.5 -99t-93.5 -147.5t-34 -181t34 -180.5t93.5 -147t140.5 -99t179 -36.5h22q61 0 123 19.5t109 53 t76.5 79.5t29.5 102v104h-370v182h592v-303q0 -68 -37 -141.5t-111 -135t-182.5 -102.5t-249.5 -41h-2q-150 0 -270.5 50.5t-206.5 140.5q-90 92 -137.5 209t-47.5 246z" />
<glyph unicode="H" horiz-adv-x="1361" d="M100 1249h219v-493h707v493h221v-1249h-221v573h-707v-573h-217z" />
<glyph unicode="I" horiz-adv-x="417" d="M98 1249h221v-1249h-219z" />
<glyph unicode="J" horiz-adv-x="653" d="M27 -23v181q111 0 172 18.5t90.5 48t37 66.5t7.5 74v702h-244v182h463v-899q0 -96 -27.5 -166.5t-90 -117t-163 -68t-245.5 -21.5z" />
<glyph unicode="K" horiz-adv-x="1269" d="M68 1249h221v-633l717 633h305l-686 -594l680 -655h-291l-545 539l-6 -7l-174 -145v-387h-219z" />
<glyph unicode="L" horiz-adv-x="925" d="M61 1249h220v-1067h622v-182h-840z" />
<glyph unicode="M" horiz-adv-x="1429" d="M35 0l239 1380l443 -1114q0 -2 26.5 58.5t68.5 159t96.5 221t108.5 246.5t103 238t84 191l176 -1380h-233l-66 627l-376 -846l-363 870l-68 -651h-239z" />
<glyph unicode="N" horiz-adv-x="1404" d="M111 1468l985 -1128v909h219v-1489l-985 1131v-891h-217z" />
<glyph unicode="O" horiz-adv-x="1693" d="M35 623q0 133 59.5 248.5t173.5 207.5h-4q104 90 253 140.5t329 50.5t327.5 -50.5t253.5 -140.5q109 -92 171.5 -207.5t62.5 -248.5q0 -131 -61.5 -248t-167.5 -207q-109 -90 -256.5 -140.5t-329.5 -50.5q-180 0 -328.5 50.5t-253.5 140.5h4q-115 92 -173 208t-60 247z M287 623q0 -96 43 -180.5t117.5 -147t177 -99t221.5 -36.5t221 36.5t177 99t117 146.5t42 181q0 96 -42 181t-117 147.5t-177 99t-221 36.5t-221.5 -36.5t-177 -99t-117.5 -147.5t-43 -181z" />
<glyph unicode="P" horiz-adv-x="970" d="M82 1249h371q121 0 210 -26.5t148 -73.5h2q63 -53 95 -127t32 -160v-8q0 -88 -41 -156q-43 -72 -106 -120q-18 -14 -44 -30t-67 -28t-99.5 -20t-138.5 -8h-141v-492h-219zM303 676h209q37 0 77 11t73 36q55 39 61 135q-4 106 -51 152q-33 25 -89.5 41t-129.5 16h-150 v-391z" />
<glyph unicode="Q" horiz-adv-x="1411" d="M39 623q0 133 50 248.5t142 207.5h-2q86 90 208 140.5t268 50.5q147 0 267 -50.5t208 -140.5q90 -92 139 -207.5t49 -248.5q0 -131 -48 -248t-138 -207q-55 -55 -127 -99t-154 -67q121 -57 236.5 -100t187.5 -45v-201q-82 20 -186.5 57t-215 81t-221 94.5t-205 100.5 t-166 97t-104.5 84l2 -2q-86 90 -138 208t-52 247zM260 623q0 -135 60.5 -243t171.5 -167l-3 2q49 -27 105.5 -41t110.5 -14q96 0 178 36.5t141 99t92 146.5t33 181q0 96 -33 181t-92 147.5t-141 99t-178 36.5t-177.5 -36.5t-140.5 -99t-93 -147.5t-34 -181z" />
<glyph unicode="R" horiz-adv-x="1024" d="M123 1249h317q117 0 207 -26.5t150 -73.5q66 -55 97.5 -129t31.5 -158v-8q0 -90 -40 -158q-42 -72 -106 -121q-23 -16 -61.5 -33.5t-104.5 -31.5q49 -61 105.5 -128t114 -134.5t110.5 -131t96 -116.5h-270l-405 492h-21v-492h-219zM344 676h154q37 0 76.5 12t72.5 35 q25 23 42.5 56.5t19.5 82.5q-4 102 -52 148q-33 25 -89 41t-128 16h-96v-391z" />
<glyph unicode="S" horiz-adv-x="985" d="M43 291l154 127q14 -35 45.5 -79t70.5 -84t83 -66.5t87 -26.5q68 0 110 17.5t66.5 44t32.5 54t8 50.5t-5 50.5t-27.5 59t-68.5 64.5t-128 65q-119 49 -194.5 93.5t-119.5 88.5t-61.5 90t-17.5 99q0 55 21.5 116.5t69.5 112t127 83t196 32.5q158 0 260 -77t157 -216 l-186 -59q-63 162 -231 162q-92 0 -137.5 -35t-45.5 -92q0 -35 23.5 -63t64.5 -53.5t95.5 -49t117.5 -49.5q106 -47 168 -98.5t92.5 -104.5t39 -104.5t8.5 -96.5q0 -47 -20.5 -110.5t-70 -121t-133.5 -96t-211 -38.5q-76 0 -142.5 23.5t-122.5 65.5t-100 99t-75 123z" />
<glyph unicode="T" horiz-adv-x="874" d="M-16 1067v182h913v-182h-330v-1067h-219v1067h-364z" />
<glyph unicode="U" horiz-adv-x="1150" d="M96 410v839h223v-848q0 -59 23 -104t59.5 -76t83.5 -46t99 -15q51 0 97 14t80 43t53.5 75t19.5 109v848h223v-839q0 -109 -34 -191t-96.5 -135t-149.5 -80t-193 -27q-104 0 -193.5 27t-154 80t-102.5 135t-38 191z" />
<glyph unicode="V" horiz-adv-x="1146" d="M-45 1249h231l373 -901l367 901h233l-602 -1466z" />
<glyph unicode="W" horiz-adv-x="1472" d="M-37 1249h250l236 -866q27 102 53 219t54 236.5t54.5 234.5t51.5 215l124 2l226 -915q16 49 39.5 132t50 180t52.5 197.5t47.5 181.5t33.5 132l12 51h246l-506 -1485l-262 996q-74 -358 -146.5 -612t-105.5 -388z" />
<glyph unicode="X" horiz-adv-x="1251" d="M-29 0l488 657l-463 592h260l340 -432q80 109 163 218.5t161 213.5h256l-439 -594l529 -655h-260l-410 498q-92 -123 -186.5 -252t-182.5 -246h-256z" />
<glyph unicode="Y" horiz-adv-x="1030" d="M-115 1249h254l353 -479q27 35 52 71t50 70l237 338h256l-479 -678v-571h-219v573z" />
<glyph unicode="Z" horiz-adv-x="980" d="M14 0v135l643 932h-612v182h899v-135l-649 -932h649v-182h-930z" />
<glyph unicode="[" horiz-adv-x="415" d="M14 -115v1350h379v-180h-164v-989h164v-181h-379z" />
<glyph unicode="]" horiz-adv-x="407" d="M-8 66h164v989h-164v180h381v-1350h-381v181z" />
<glyph unicode="_" horiz-adv-x="1191" d="M29 -70v181h1083v-181h-1083z" />
<glyph unicode="`" horiz-adv-x="860" d="M111 1374h311l178 -260h-170z" />
<glyph unicode="a" d="M-33 0l602 1380l607 -1380h-232l-145 338h-459q-35 -80 -73 -171t-70 -167h-230zM414 520h311q-23 55 -40 97t-33.5 83t-36 88.5t-46.5 116.5q-37 -92 -75.5 -185t-79.5 -200z" />
<glyph unicode="b" horiz-adv-x="1019" d="M102 1249h367q86 0 164 -18.5t137 -57t94 -102t35 -151.5q0 -98 -34 -152.5t-87 -89.5q35 -16 68 -41t58.5 -60.5t41 -84t15.5 -111.5q0 -117 -45.5 -190.5t-116 -115.5t-154.5 -58.5t-160 -16.5h-381zM324 182h149q268 0 268 207q0 49 -20.5 84t-51 57.5t-68.5 32.5 t-71 10h-206v-391zM324 756h127q47 0 89 9t72.5 28.5t49 50t18.5 76.5q0 45 -19.5 73.5t-49 45t-67.5 22.5t-75 6h-145v-311z" />
<glyph unicode="c" horiz-adv-x="1288" d="M61 623v11q1 126 47 238q48 116 136 209q86 88 207.5 138.5t269.5 50.5q147 0 281.5 -64.5t244.5 -175.5l-137 -147q-96 96 -195.5 150t-193.5 54q-96 0 -178 -36.5t-141.5 -99t-92.5 -147.5t-33 -181t33 -180.5t92.5 -147t141.5 -99t178 -36.5q92 0 192.5 55t194.5 150 l141 -146q-111 -111 -247 -176.5t-283 -65.5q-145 4 -264 51.5t-211 139.5q-88 92 -135.5 209t-47.5 246z" />
<glyph unicode="d" horiz-adv-x="1191" d="M88 1249h377q117 0 232.5 -36.5t207.5 -112.5t149.5 -194t57.5 -279q0 -162 -58.5 -281t-152.5 -195.5t-213 -113.5t-239 -37h-359zM307 182h142q98 0 179 31t140 88t92 140t33 186q0 102 -33 184t-92 138.5t-140 87t-179 30.5h-142v-885z" />
<glyph unicode="e" horiz-adv-x="1187" d="M102 1249h951v-182h-729v-311h665v-183h-665v-391h774v-182h-994z" />
<glyph unicode="f" horiz-adv-x="888" d="M61 1249h803v-182h-583v-311h438v-183h-438v-573h-218z" />
<glyph unicode="g" horiz-adv-x="1394" d="M61 623q0 133 47.5 249.5t137.5 208.5q88 88 207.5 138.5t269.5 50.5q145 0 280.5 -64.5t245.5 -175.5l-137 -147q-96 96 -194.5 150t-194.5 54q-98 0 -179 -36.5t-140.5 -99t-93.5 -147.5t-34 -181t34 -180.5t93.5 -147t140.5 -99t179 -36.5h22q61 0 123 19.5t109 53 t76.5 79.5t29.5 102v104h-370v182h592v-303q0 -68 -37 -141.5t-111 -135t-182.5 -102.5t-249.5 -41h-2q-150 0 -270.5 50.5t-206.5 140.5q-90 92 -137.5 209t-47.5 246z" />
<glyph unicode="h" horiz-adv-x="1361" d="M100 1249h219v-493h707v493h221v-1249h-221v573h-707v-573h-217z" />
<glyph unicode="i" horiz-adv-x="417" d="M98 1249h221v-1249h-219z" />
<glyph unicode="j" horiz-adv-x="653" d="M27 -23v181q111 0 172 18.5t90.5 48t37 66.5t7.5 74v702h-244v182h463v-899q0 -96 -27.5 -166.5t-90 -117t-163 -68t-245.5 -21.5z" />
<glyph unicode="k" horiz-adv-x="1269" d="M68 1249h221v-633l717 633h305l-686 -594l680 -655h-291l-545 539l-6 -7l-174 -145v-387h-219z" />
<glyph unicode="l" horiz-adv-x="925" d="M61 1249h220v-1067h622v-182h-840z" />
<glyph unicode="m" horiz-adv-x="1429" d="M35 0l239 1380l443 -1114q0 -2 26.5 58.5t68.5 159t96.5 221t108.5 246.5t103 238t84 191l176 -1380h-233l-66 627l-376 -846l-363 870l-68 -651h-239z" />
<glyph unicode="n" horiz-adv-x="1404" d="M111 1468l985 -1128v909h219v-1489l-985 1131v-891h-217z" />
<glyph unicode="o" horiz-adv-x="1693" d="M35 623q0 133 59.5 248.5t173.5 207.5h-4q104 90 253 140.5t329 50.5t327.5 -50.5t253.5 -140.5q109 -92 171.5 -207.5t62.5 -248.5q0 -131 -61.5 -248t-167.5 -207q-109 -90 -256.5 -140.5t-329.5 -50.5q-180 0 -328.5 50.5t-253.5 140.5h4q-115 92 -173 208t-60 247z M287 623q0 -96 43 -180.5t117.5 -147t177 -99t221.5 -36.5t221 36.5t177 99t117 146.5t42 181q0 96 -42 181t-117 147.5t-177 99t-221 36.5t-221.5 -36.5t-177 -99t-117.5 -147.5t-43 -181z" />
<glyph unicode="p" horiz-adv-x="970" d="M82 1249h371q121 0 210 -26.5t148 -73.5h2q63 -53 95 -127t32 -160v-8q0 -87 -41 -156q-43 -71 -106 -120q-18 -14 -44 -30t-67 -28t-99.5 -20t-138.5 -8h-141v-492h-219zM303 676h209q37 0 77 11t73 36q55 39 61 135q-4 106 -51 152q-33 25 -89.5 41t-129.5 16h-150 v-391z" />
<glyph unicode="q" horiz-adv-x="1411" d="M39 623q0 133 50 248.5t142 207.5h-2q86 90 208 140.5t268 50.5q147 0 267 -50.5t208 -140.5q90 -92 139 -207.5t49 -248.5q0 -131 -48 -248t-138 -207q-55 -55 -127 -99t-154 -67q121 -57 236.5 -100t187.5 -45v-201q-82 20 -186.5 57t-215 81t-221 94.5t-205 100.5 t-166 97t-104.5 84l2 -2q-86 90 -138 208t-52 247zM260 623q0 -135 60.5 -243t171.5 -167l-3 2q49 -27 105.5 -41t110.5 -14q96 0 178 36.5t141 99t92 146.5t33 181q0 96 -33 181t-92 147.5t-141 99t-178 36.5t-177.5 -36.5t-140.5 -99t-93 -147.5t-34 -181z" />
<glyph unicode="r" horiz-adv-x="1024" d="M123 1249h317q117 0 207 -26.5t150 -73.5q66 -55 97.5 -129t31.5 -158v-8q0 -90 -40 -158q-42 -72 -106 -121q-23 -16 -61.5 -33.5t-104.5 -31.5q49 -61 105.5 -128t114 -134.5t110.5 -131t96 -116.5h-270l-405 492h-21v-492h-219zM344 676h154q37 0 76.5 12t72.5 35 q25 23 42.5 56.5t19.5 82.5q-4 102 -52 148q-33 25 -89 41t-128 16h-96v-391z" />
<glyph unicode="s" horiz-adv-x="985" d="M43 291l154 127q14 -35 45.5 -79t70.5 -84t83 -66.5t87 -26.5q68 0 110 17.5t66.5 44t32.5 54t8 50.5t-5 50.5t-27.5 59t-68.5 64.5t-128 65q-119 49 -194.5 93.5t-119.5 88.5t-61.5 90t-17.5 99q0 55 21.5 116.5t69.5 112t127 83t196 32.5q158 0 260 -77t157 -216 l-186 -59q-63 162 -231 162q-92 0 -137.5 -35t-45.5 -92q0 -35 23.5 -63t64.5 -53.5t95.5 -49t117.5 -49.5q106 -47 168 -98.5t92.5 -104.5t39 -104.5t8.5 -96.5q0 -47 -20.5 -110.5t-70 -121t-133.5 -96t-211 -38.5q-76 0 -142.5 23.5t-122.5 65.5t-100 99t-75 123z" />
<glyph unicode="t" horiz-adv-x="874" d="M-16 1067v182h913v-182h-330v-1067h-219v1067h-364z" />
<glyph unicode="u" horiz-adv-x="1150" d="M96 410v839h223v-848q0 -59 23 -104t59.5 -76t83.5 -46t99 -15q51 0 97 14t80 43t53.5 75t19.5 109v848h223v-839q0 -109 -34 -191t-96.5 -135t-149.5 -80t-193 -27q-104 0 -193.5 27t-154 80t-102.5 135t-38 191z" />
<glyph unicode="v" horiz-adv-x="1146" d="M-45 1249h231l373 -901l367 901h233l-602 -1466z" />
<glyph unicode="w" horiz-adv-x="1472" d="M-37 1249h250l236 -866q27 102 53 219t54 236.5t54.5 234.5t51.5 215l124 2l226 -915q16 49 39.5 132t50 180t52.5 197.5t47.5 181.5t33.5 132l12 51h246l-506 -1485l-262 996q-74 -358 -146.5 -612t-105.5 -388z" />
<glyph unicode="x" horiz-adv-x="1251" d="M-29 0l488 657l-463 592h260l340 -432q80 109 163 218.5t161 213.5h256l-439 -594l529 -655h-260l-410 498q-92 -123 -186.5 -252t-182.5 -246h-256z" />
<glyph unicode="y" horiz-adv-x="1030" d="M-115 1249h254l353 -479q27 35 52 71t50 70l237 338h256l-479 -678v-571h-219v573z" />
<glyph unicode="z" horiz-adv-x="980" d="M14 0v135l643 932h-612v182h899v-135l-649 -932h649v-182h-930z" />
<glyph unicode="&#xa8;" horiz-adv-x="860" d="M115 1225q0 47 35.5 78.5t89.5 31.5q51 0 89 -31.5t38 -78.5q0 -45 -38 -76t-89 -31q-53 0 -89 31t-36 76zM446 1225q0 47 36 78.5t89 31.5q55 0 92 -31.5t37 -78.5q0 -45 -36.5 -76t-92.5 -31q-53 0 -89 31t-36 76z" />
<glyph unicode="&#xad;" horiz-adv-x="512" d="M8 682h490v-178h-488z" />
<glyph unicode="&#xb4;" horiz-adv-x="860" d="M193 1114l200 260h309l-319 -260h-190z" />
<glyph unicode="&#xb8;" horiz-adv-x="512" d="M-12 -303l180 303h299l-268 -303h-211z" />
<glyph unicode="&#xc0;" d="M-33 0l602 1380l607 -1380h-232l-145 338h-459q-35 -80 -73 -171t-70 -167h-230zM313 1599h312l178 -260h-170zM414 520h311q-23 55 -40 97t-33.5 83t-36 88.5t-46.5 116.5q-37 -92 -75.5 -185t-79.5 -200z" />
<glyph unicode="&#xc1;" d="M-33 0l602 1380l607 -1380h-232l-145 338h-459q-35 -80 -73 -171t-70 -167h-230zM303 1339l201 260h309l-319 -260h-191zM414 520h311q-23 55 -40 97t-33.5 83t-36 88.5t-46.5 116.5q-37 -92 -75.5 -185t-79.5 -200z" />
<glyph unicode="&#xc2;" d="M-33 0l602 1380l607 -1380h-232l-145 338h-459q-35 -80 -73 -171t-70 -167h-230zM225 1327l258 262h154l256 -262h-246l-86 131l-45 -65q-10 -12 -18.5 -23.5t-14.5 -21.5q-8 -10 -14 -21h-244zM414 520h311q-23 55 -40 97t-33.5 83t-36 88.5t-46.5 116.5 q-37 -92 -75.5 -185t-79.5 -200z" />
<glyph unicode="&#xc3;" d="M-33 0l602 1380l607 -1380h-232l-145 338h-459q-35 -80 -73 -171t-70 -167h-230zM301 1401q6 14 20.5 41.5t39 55.5t58.5 48.5t77 20.5q47 0 72.5 -14.5t60.5 -36.5q0 -2 1 -8.5t1 -14.5v-23q6 0 11 17.5t9 40.5q6 25 11 59l155 -78q0 -35 -12 -59q-6 -12 -19.5 -32.5 t-35 -40t-51 -35t-68.5 -15.5q-45 0 -81 16.5t-56 34.5q-4 -10 -12.5 -31.5t-24.5 -58.5zM414 520h311q-23 55 -40 97t-33.5 83t-36 88.5t-46.5 116.5q-37 -92 -75.5 -185t-79.5 -200z" />
<glyph unicode="&#xc4;" d="M-33 0l602 1380l607 -1380h-232l-145 338h-459q-35 -80 -73 -171t-70 -167h-230zM266 1450q0 47 36 79t89 32q51 0 89 -32t38 -79q0 -45 -38 -76t-89 -31q-53 0 -89 31t-36 76zM414 520h311q-23 55 -40 97t-33.5 83t-36 88.5t-46.5 116.5q-37 -92 -75.5 -185t-79.5 -200z M598 1450q0 47 36 79t89 32q55 0 92 -32t37 -79q0 -45 -37 -76t-92 -31q-53 0 -89 31t-36 76z" />
<glyph unicode="&#xc7;" horiz-adv-x="1288" d="M61 623q-2 133 46.5 249.5t136.5 208.5q86 88 207.5 138.5t269.5 50.5q147 0 281.5 -64.5t244.5 -175.5l-137 -147q-96 96 -195.5 150t-193.5 54q-96 0 -178 -36.5t-141.5 -99t-92.5 -147.5t-33 -181t33 -180.5t92.5 -147t141.5 -99t178 -36.5q92 0 192.5 55t194.5 150 l141 -146q-111 -111 -247 -176.5t-283 -65.5q-145 4 -264 51.5t-211 139.5q-88 92 -135.5 209t-47.5 246zM403 -303l181 303h299l-269 -303h-211z" />
<glyph unicode="&#xc8;" horiz-adv-x="1187" d="M102 1249h951v-182h-729v-311h665v-183h-665v-391h774v-182h-994zM348 1599h311l179 -260h-170z" />
<glyph unicode="&#xc9;" horiz-adv-x="1187" d="M102 1249h951v-182h-729v-311h665v-183h-665v-391h774v-182h-994zM338 1339l201 260h309l-320 -260h-190z" />
<glyph unicode="&#xca;" horiz-adv-x="1187" d="M102 1249h951v-182h-729v-311h665v-183h-665v-391h774v-182h-994zM260 1327l258 262h154l256 -262h-246l-86 131l-45 -65q-10 -12 -18.5 -23.5t-14.5 -21.5q-8 -10 -14 -21h-244z" />
<glyph unicode="&#xcb;" horiz-adv-x="1187" d="M102 1249h951v-182h-729v-311h665v-183h-665v-391h774v-182h-994zM301 1450q0 47 36 79t89 32q51 0 89 -32t38 -79q0 -45 -38 -76t-89 -31q-53 0 -89 31t-36 76zM633 1450q0 47 36 79t89 32q55 0 92 -32t37 -79q0 -45 -37 -76t-92 -31q-53 0 -89 31t-36 76z" />
<glyph unicode="&#xcc;" horiz-adv-x="417" d="M-35 1599h311l179 -260h-170zM98 1249h221v-1249h-219z" />
<glyph unicode="&#xcd;" horiz-adv-x="417" d="M-45 1339l201 260h309l-320 -260h-190zM98 1249h221v-1249h-219z" />
<glyph unicode="&#xce;" horiz-adv-x="417" d="M-125 1327l258 262h154l256 -262h-246l-86 131l-45 -65q-10 -12 -18.5 -23.5t-14.5 -21.5q-8 -10 -14 -21h-244zM98 1249h221v-1249h-219z" />
<glyph unicode="&#xcf;" horiz-adv-x="417" d="M-84 1450q0 47 36 79t89 32q51 0 89 -32t38 -79q0 -45 -38 -76t-89 -31q-53 0 -89 31t-36 76zM98 1249h221v-1249h-219zM248 1450q0 47 35.5 79t89.5 32q55 0 92 -32t37 -79q0 -45 -37 -76t-92 -31q-53 0 -89 31t-36 76z" />
<glyph unicode="&#xd1;" horiz-adv-x="1404" d="M111 1468l985 -1128v909h219v-1489l-985 1131v-891h-217zM444 1401q6 14 20.5 41.5t39 55.5t58.5 48.5t77 20.5q47 0 72.5 -14.5t60.5 -36.5q0 -2 1 -8.5t1 -14.5v-23q6 0 11.5 17.5t9.5 40.5q6 25 10 59l156 -78q0 -35 -13 -59q-6 -12 -19.5 -32.5t-35 -40t-51 -35 t-68.5 -15.5q-45 0 -81 16.5t-56 34.5q-4 -10 -12.5 -31.5t-24.5 -58.5z" />
<glyph unicode="&#xd2;" horiz-adv-x="1693" d="M35 623q0 133 59.5 248.5t173.5 207.5h-4q104 90 253 140.5t329 50.5t327.5 -50.5t253.5 -140.5q109 -92 171.5 -207.5t62.5 -248.5q0 -131 -61.5 -248t-167.5 -207q-109 -90 -256.5 -140.5t-329.5 -50.5q-180 0 -328.5 50.5t-253.5 140.5h4q-115 92 -173 208t-60 247z M287 623q0 -96 43 -180.5t117.5 -147t177 -99t221.5 -36.5t221 36.5t177 99t117 146.5t42 181q0 96 -42 181t-117 147.5t-177 99t-221 36.5t-221.5 -36.5t-177 -99t-117.5 -147.5t-43 -181zM602 1599h311l179 -260h-170z" />
<glyph unicode="&#xd3;" horiz-adv-x="1693" d="M35 623q0 133 59.5 248.5t173.5 207.5h-4q104 90 253 140.5t329 50.5t327.5 -50.5t253.5 -140.5q109 -92 171.5 -207.5t62.5 -248.5q0 -131 -61.5 -248t-167.5 -207q-109 -90 -256.5 -140.5t-329.5 -50.5q-180 0 -328.5 50.5t-253.5 140.5h4q-115 92 -173 208t-60 247z M287 623q0 -96 43 -180.5t117.5 -147t177 -99t221.5 -36.5t221 36.5t177 99t117 146.5t42 181q0 96 -42 181t-117 147.5t-177 99t-221 36.5t-221.5 -36.5t-177 -99t-117.5 -147.5t-43 -181zM592 1339l201 260h309l-320 -260h-190z" />
<glyph unicode="&#xd4;" horiz-adv-x="1693" d="M35 623q0 133 59.5 248.5t173.5 207.5h-4q104 90 253 140.5t329 50.5t327.5 -50.5t253.5 -140.5q109 -92 171.5 -207.5t62.5 -248.5q0 -131 -61.5 -248t-167.5 -207q-109 -90 -256.5 -140.5t-329.5 -50.5q-180 0 -328.5 50.5t-253.5 140.5h4q-115 92 -173 208t-60 247z M287 623q0 -96 43 -180.5t117.5 -147t177 -99t221.5 -36.5t221 36.5t177 99t117 146.5t42 181q0 96 -42 181t-117 147.5t-177 99t-221 36.5t-221.5 -36.5t-177 -99t-117.5 -147.5t-43 -181zM512 1327l258 262h154l256 -262h-246l-86 131l-45 -65q-10 -12 -18.5 -23.5 t-14.5 -21.5q-8 -10 -14 -21h-244z" />
<glyph unicode="&#xd6;" horiz-adv-x="1693" d="M35 623q0 133 59.5 248.5t173.5 207.5h-4q104 90 253 140.5t329 50.5t327.5 -50.5t253.5 -140.5q109 -92 171.5 -207.5t62.5 -248.5q0 -131 -61.5 -248t-167.5 -207q-109 -90 -256.5 -140.5t-329.5 -50.5q-180 0 -328.5 50.5t-253.5 140.5h4q-115 92 -173 208t-60 247z M287 623q0 -96 43 -180.5t117.5 -147t177 -99t221.5 -36.5t221 36.5t177 99t117 146.5t42 181q0 96 -42 181t-117 147.5t-177 99t-221 36.5t-221.5 -36.5t-177 -99t-117.5 -147.5t-43 -181zM553 1450q0 47 36 79t89 32q51 0 89 -32t38 -79q0 -45 -38 -76t-89 -31 q-53 0 -89 31t-36 76zM885 1450q0 47 35.5 79t89.5 32q55 0 92 -32t37 -79q0 -45 -37 -76t-92 -31q-53 0 -89 31t-36 76z" />
<glyph unicode="&#xd9;" horiz-adv-x="1150" d="M96 410v839h223v-848q0 -59 23 -104t59.5 -76t83.5 -46t99 -15q51 0 97 14t80 43t53.5 75t19.5 109v848h223v-839q0 -109 -34 -191t-96.5 -135t-149.5 -80t-193 -27q-104 0 -193.5 27t-154 80t-102.5 135t-38 191zM330 1599h311l178 -260h-170z" />
<glyph unicode="&#xda;" horiz-adv-x="1150" d="M96 410v839h223v-848q0 -59 23 -104t59.5 -76t83.5 -46t99 -15q51 0 97 14t80 43t53.5 75t19.5 109v848h223v-839q0 -109 -34 -191t-96.5 -135t-149.5 -80t-193 -27q-104 0 -193.5 27t-154 80t-102.5 135t-38 191zM319 1339l201 260h309l-319 -260h-191z" />
<glyph unicode="&#xdb;" horiz-adv-x="1150" d="M96 410v839h223v-848q0 -59 23 -104t59.5 -76t83.5 -46t99 -15q51 0 97 14t80 43t53.5 75t19.5 109v848h223v-839q0 -109 -34 -191t-96.5 -135t-149.5 -80t-193 -27q-104 0 -193.5 27t-154 80t-102.5 135t-38 191zM242 1327l258 262h153l256 -262h-245l-86 131l-46 -65 q-10 -12 -18 -23.5t-14 -21.5q-8 -10 -15 -21h-243z" />
<glyph unicode="&#xdc;" horiz-adv-x="1150" d="M96 410v839h223v-848q0 -59 23 -104t59.5 -76t83.5 -46t99 -15q51 0 97 14t80 43t53.5 75t19.5 109v848h223v-839q0 -109 -34 -191t-96.5 -135t-149.5 -80t-193 -27q-104 0 -193.5 27t-154 80t-102.5 135t-38 191zM283 1450q0 47 35.5 79t89.5 32q51 0 89 -32t38 -79 q0 -45 -38 -76t-89 -31q-53 0 -89 31t-36 76zM614 1450q0 47 36 79t89 32q55 0 92 -32t37 -79q0 -45 -36.5 -76t-92.5 -31q-53 0 -89 31t-36 76z" />
<glyph unicode="&#xdd;" horiz-adv-x="1030" d="M-115 1249h254l353 -479q27 35 52 71t50 70l237 338h256l-479 -678v-571h-219v573zM260 1339l201 260h309l-319 -260h-191z" />
<glyph unicode="&#xe0;" d="M-33 0l602 1380l607 -1380h-232l-145 338h-459q-35 -80 -73 -171t-70 -167h-230zM313 1599h312l178 -260h-170zM414 520h311q-23 55 -40 97t-33.5 83t-36 88.5t-46.5 116.5q-37 -92 -75.5 -185t-79.5 -200z" />
<glyph unicode="&#xe1;" d="M-33 0l602 1380l607 -1380h-232l-145 338h-459q-35 -80 -73 -171t-70 -167h-230zM303 1339l201 260h309l-319 -260h-191zM414 520h311q-23 55 -40 97t-33.5 83t-36 88.5t-46.5 116.5q-37 -92 -75.5 -185t-79.5 -200z" />
<glyph unicode="&#xe2;" d="M-33 0l602 1380l607 -1380h-232l-145 338h-459q-35 -80 -73 -171t-70 -167h-230zM225 1327l258 262h154l256 -262h-246l-86 131l-45 -65q-10 -12 -18.5 -23.5t-14.5 -21.5q-8 -10 -14 -21h-244zM414 520h311q-23 55 -40 97t-33.5 83t-36 88.5t-46.5 116.5 q-37 -92 -75.5 -185t-79.5 -200z" />
<glyph unicode="&#xe3;" d="M-33 0l602 1380l607 -1380h-232l-145 338h-459q-35 -80 -73 -171t-70 -167h-230zM301 1401q6 14 20.5 41.5t39 55.5t58.5 48.5t77 20.5q47 0 72.5 -14.5t60.5 -36.5q0 -2 1 -8.5t1 -14.5v-23q6 0 11 17.5t9 40.5q6 25 11 59l155 -78q0 -35 -12 -59q-6 -12 -19.5 -32.5 t-35 -40t-51 -35t-68.5 -15.5q-45 0 -81 16.5t-56 34.5q-4 -10 -12.5 -31.5t-24.5 -58.5zM414 520h311q-23 55 -40 97t-33.5 83t-36 88.5t-46.5 116.5q-37 -92 -75.5 -185t-79.5 -200z" />
<glyph unicode="&#xe4;" d="M-33 0l602 1380l607 -1380h-232l-145 338h-459q-35 -80 -73 -171t-70 -167h-230zM266 1450q0 47 36 79t89 32q51 0 89 -32t38 -79q0 -45 -38 -76t-89 -31q-53 0 -89 31t-36 76zM414 520h311q-23 55 -40 97t-33.5 83t-36 88.5t-46.5 116.5q-37 -92 -75.5 -185t-79.5 -200z M598 1450q0 47 36 79t89 32q55 0 92 -32t37 -79q0 -45 -37 -76t-92 -31q-53 0 -89 31t-36 76z" />
<glyph unicode="&#xe7;" horiz-adv-x="1288" d="M61 623q-2 133 46.5 249.5t136.5 208.5q86 88 207.5 138.5t269.5 50.5q147 0 281.5 -64.5t244.5 -175.5l-137 -147q-96 96 -195.5 150t-193.5 54q-96 0 -178 -36.5t-141.5 -99t-92.5 -147.5t-33 -181t33 -180.5t92.5 -147t141.5 -99t178 -36.5q92 0 192.5 55t194.5 150 l141 -146q-111 -111 -247 -176.5t-283 -65.5q-145 4 -264 51.5t-211 139.5q-88 92 -135.5 209t-47.5 246zM403 -303l181 303h299l-269 -303h-211z" />
<glyph unicode="&#xe8;" horiz-adv-x="1187" d="M102 1249h951v-182h-729v-311h665v-183h-665v-391h774v-182h-994zM348 1599h311l179 -260h-170z" />
<glyph unicode="&#xe9;" horiz-adv-x="1187" d="M102 1249h951v-182h-729v-311h665v-183h-665v-391h774v-182h-994zM338 1339l201 260h309l-320 -260h-190z" />
<glyph unicode="&#xea;" horiz-adv-x="1187" d="M102 1249h951v-182h-729v-311h665v-183h-665v-391h774v-182h-994zM260 1327l258 262h154l256 -262h-246l-86 131l-45 -65q-10 -12 -18.5 -23.5t-14.5 -21.5q-8 -10 -14 -21h-244z" />
<glyph unicode="&#xeb;" horiz-adv-x="1187" d="M102 1249h951v-182h-729v-311h665v-183h-665v-391h774v-182h-994zM301 1450q0 47 36 79t89 32q51 0 89 -32t38 -79q0 -45 -38 -76t-89 -31q-53 0 -89 31t-36 76zM633 1450q0 47 36 79t89 32q55 0 92 -32t37 -79q0 -45 -37 -76t-92 -31q-53 0 -89 31t-36 76z" />
<glyph unicode="&#xec;" horiz-adv-x="417" d="M-35 1599h311l179 -260h-170zM98 1249h221v-1249h-219z" />
<glyph unicode="&#xed;" horiz-adv-x="417" d="M-45 1339l201 260h309l-320 -260h-190zM98 1249h221v-1249h-219z" />
<glyph unicode="&#xee;" horiz-adv-x="417" d="M-125 1327l258 262h154l256 -262h-246l-86 131l-45 -65q-10 -12 -18.5 -23.5t-14.5 -21.5q-8 -10 -14 -21h-244zM98 1249h221v-1249h-219z" />
<glyph unicode="&#xef;" horiz-adv-x="417" d="M-84 1450q0 47 36 79t89 32q51 0 89 -32t38 -79q0 -45 -38 -76t-89 -31q-53 0 -89 31t-36 76zM98 1249h221v-1249h-219zM248 1450q0 47 35.5 79t89.5 32q55 0 92 -32t37 -79q0 -45 -37 -76t-92 -31q-53 0 -89 31t-36 76z" />
<glyph unicode="&#xf1;" horiz-adv-x="1404" d="M111 1468l985 -1128v909h219v-1489l-985 1131v-891h-217zM444 1401q6 14 20.5 41.5t39 55.5t58.5 48.5t77 20.5q47 0 72.5 -14.5t60.5 -36.5q0 -2 1 -8.5t1 -14.5v-23q6 0 11.5 17.5t9.5 40.5q6 25 10 59l156 -78q0 -35 -13 -59q-6 -12 -19.5 -32.5t-35 -40t-51 -35 t-68.5 -15.5q-45 0 -81 16.5t-56 34.5q-4 -10 -12.5 -31.5t-24.5 -58.5z" />
<glyph unicode="&#xf2;" horiz-adv-x="1693" d="M35 623q0 133 59.5 248.5t173.5 207.5h-4q104 90 253 140.5t329 50.5t327.5 -50.5t253.5 -140.5q109 -92 171.5 -207.5t62.5 -248.5q0 -131 -61.5 -248t-167.5 -207q-109 -90 -256.5 -140.5t-329.5 -50.5q-180 0 -328.5 50.5t-253.5 140.5h4q-115 92 -173 208t-60 247z M287 623q0 -96 43 -180.5t117.5 -147t177 -99t221.5 -36.5t221 36.5t177 99t117 146.5t42 181q0 96 -42 181t-117 147.5t-177 99t-221 36.5t-221.5 -36.5t-177 -99t-117.5 -147.5t-43 -181zM602 1599h311l179 -260h-170z" />
<glyph unicode="&#xf3;" horiz-adv-x="1693" d="M35 623q0 133 59.5 248.5t173.5 207.5h-4q104 90 253 140.5t329 50.5t327.5 -50.5t253.5 -140.5q109 -92 171.5 -207.5t62.5 -248.5q0 -131 -61.5 -248t-167.5 -207q-109 -90 -256.5 -140.5t-329.5 -50.5q-180 0 -328.5 50.5t-253.5 140.5h4q-115 92 -173 208t-60 247z M287 623q0 -96 43 -180.5t117.5 -147t177 -99t221.5 -36.5t221 36.5t177 99t117 146.5t42 181q0 96 -42 181t-117 147.5t-177 99t-221 36.5t-221.5 -36.5t-177 -99t-117.5 -147.5t-43 -181zM592 1339l201 260h309l-320 -260h-190z" />
<glyph unicode="&#xf4;" horiz-adv-x="1693" d="M35 623q0 133 59.5 248.5t173.5 207.5h-4q104 90 253 140.5t329 50.5t327.5 -50.5t253.5 -140.5q109 -92 171.5 -207.5t62.5 -248.5q0 -131 -61.5 -248t-167.5 -207q-109 -90 -256.5 -140.5t-329.5 -50.5q-180 0 -328.5 50.5t-253.5 140.5h4q-115 92 -173 208t-60 247z M287 623q0 -96 43 -180.5t117.5 -147t177 -99t221.5 -36.5t221 36.5t177 99t117 146.5t42 181q0 96 -42 181t-117 147.5t-177 99t-221 36.5t-221.5 -36.5t-177 -99t-117.5 -147.5t-43 -181zM512 1327l258 262h154l256 -262h-246l-86 131l-45 -65q-10 -12 -18.5 -23.5 t-14.5 -21.5q-8 -10 -14 -21h-244z" />
<glyph unicode="&#xf6;" horiz-adv-x="1693" d="M35 623q0 133 59.5 248.5t173.5 207.5h-4q104 90 253 140.5t329 50.5t327.5 -50.5t253.5 -140.5q109 -92 171.5 -207.5t62.5 -248.5q0 -131 -61.5 -248t-167.5 -207q-109 -90 -256.5 -140.5t-329.5 -50.5q-180 0 -328.5 50.5t-253.5 140.5h4q-115 92 -173 208t-60 247z M287 623q0 -96 43 -180.5t117.5 -147t177 -99t221.5 -36.5t221 36.5t177 99t117 146.5t42 181q0 96 -42 181t-117 147.5t-177 99t-221 36.5t-221.5 -36.5t-177 -99t-117.5 -147.5t-43 -181zM553 1450q0 47 36 79t89 32q51 0 89 -32t38 -79q0 -45 -38 -76t-89 -31 q-53 0 -89 31t-36 76zM885 1450q0 47 35.5 79t89.5 32q55 0 92 -32t37 -79q0 -45 -37 -76t-92 -31q-53 0 -89 31t-36 76z" />
<glyph unicode="&#xf9;" horiz-adv-x="1150" d="M96 410v839h223v-848q0 -59 23 -104t59.5 -76t83.5 -46t99 -15q51 0 97 14t80 43t53.5 75t19.5 109v848h223v-839q0 -109 -34 -191t-96.5 -135t-149.5 -80t-193 -27q-104 0 -193.5 27t-154 80t-102.5 135t-38 191zM330 1599h311l178 -260h-170z" />
<glyph unicode="&#xfa;" horiz-adv-x="1150" d="M96 410v839h223v-848q0 -59 23 -104t59.5 -76t83.5 -46t99 -15q51 0 97 14t80 43t53.5 75t19.5 109v848h223v-839q0 -109 -34 -191t-96.5 -135t-149.5 -80t-193 -27q-104 0 -193.5 27t-154 80t-102.5 135t-38 191zM319 1339l201 260h309l-319 -260h-191z" />
<glyph unicode="&#xfb;" horiz-adv-x="1150" d="M96 410v839h223v-848q0 -59 23 -104t59.5 -76t83.5 -46t99 -15q51 0 97 14t80 43t53.5 75t19.5 109v848h223v-839q0 -109 -34 -191t-96.5 -135t-149.5 -80t-193 -27q-104 0 -193.5 27t-154 80t-102.5 135t-38 191zM242 1327l258 262h153l256 -262h-245l-86 131l-46 -65 q-10 -12 -18 -23.5t-14 -21.5q-8 -10 -15 -21h-243z" />
<glyph unicode="&#xfc;" horiz-adv-x="1150" d="M96 410v839h223v-848q0 -59 23 -104t59.5 -76t83.5 -46t99 -15q51 0 97 14t80 43t53.5 75t19.5 109v848h223v-839q0 -109 -34 -191t-96.5 -135t-149.5 -80t-193 -27q-104 0 -193.5 27t-154 80t-102.5 135t-38 191zM283 1450q0 47 35.5 79t89.5 32q51 0 89 -32t38 -79 q0 -45 -38 -76t-89 -31q-53 0 -89 31t-36 76zM614 1450q0 47 36 79t89 32q55 0 92 -32t37 -79q0 -45 -36.5 -76t-92.5 -31q-53 0 -89 31t-36 76z" />
<glyph unicode="&#xfd;" horiz-adv-x="1030" d="M-115 1249h254l353 -479q27 35 52 71t50 70l237 338h256l-479 -678v-571h-219v573zM260 1339l201 260h309l-319 -260h-191z" />
<glyph unicode="&#xff;" horiz-adv-x="1030" d="M-115 1249h254l353 -479q27 35 52 71t50 70l237 338h256l-479 -678v-571h-219v573zM221 1450q0 47 36 79t89 32q51 0 89 -32t38 -79q0 -45 -38 -76t-89 -31q-53 0 -89 31t-36 76zM553 1450q0 47 36 79t89 32q55 0 92 -32t37 -79q0 -45 -37 -76t-92 -31q-53 0 -89 31 t-36 76z" />
<glyph unicode="&#x178;" horiz-adv-x="1030" d="M-115 1249h254l353 -479q27 35 52 71t50 70l237 338h256l-479 -678v-571h-219v573zM221 1450q0 47 36 79t89 32q51 0 89 -32t38 -79q0 -45 -38 -76t-89 -31q-53 0 -89 31t-36 76zM553 1450q0 47 36 79t89 32q55 0 92 -32t37 -79q0 -45 -37 -76t-92 -31q-53 0 -89 31 t-36 76z" />
<glyph unicode="&#x2c6;" horiz-adv-x="856" d="M59 1102l258 262h154l256 -262h-246l-86 131l-45 -66q-10 -12 -18 -23t-15 -22q-8 -10 -14 -20h-244z" />
<glyph unicode="&#x2dc;" horiz-adv-x="860" d="M111 1176q6 14 20 41.5t39 55t58.5 48t76.5 20.5q47 0 72.5 -14t60.5 -37q0 -2 1 -8t1 -14v-23q6 0 11.5 17.5t9.5 40.5q6 25 10 59l156 -78q0 -35 -13 -59q-6 -12 -19 -33t-34.5 -40t-51.5 -34.5t-69 -15.5q-45 0 -80.5 16.5t-56.5 34.5q-4 -10 -12 -31.5t-25 -58.5z " />
<glyph unicode="&#x2000;" horiz-adv-x="799" />
<glyph unicode="&#x2001;" horiz-adv-x="1599" />
<glyph unicode="&#x2002;" horiz-adv-x="799" />
<glyph unicode="&#x2003;" horiz-adv-x="1599" />
<glyph unicode="&#x2004;" horiz-adv-x="533" />
<glyph unicode="&#x2005;" horiz-adv-x="399" />
<glyph unicode="&#x2006;" horiz-adv-x="266" />
<glyph unicode="&#x2007;" horiz-adv-x="266" />
<glyph unicode="&#x2008;" horiz-adv-x="199" />
<glyph unicode="&#x2009;" horiz-adv-x="319" />
<glyph unicode="&#x200a;" horiz-adv-x="88" />
<glyph unicode="&#x2010;" horiz-adv-x="512" d="M8 682h490v-178h-488z" />
<glyph unicode="&#x2011;" horiz-adv-x="512" d="M8 682h490v-178h-488z" />
<glyph unicode="&#x2012;" horiz-adv-x="512" d="M8 682h490v-178h-488z" />
<glyph unicode="&#x2013;" horiz-adv-x="819" d="M18 504v178h779v-178h-779z" />
<glyph unicode="&#x2014;" horiz-adv-x="1140" d="M27 504v178h1083v-178h-1083z" />
<glyph unicode="&#x201c;" horiz-adv-x="716" d="M90 188h207l18 -383h-225v383zM418 -195l18 383h207v-383h-225z" />
<glyph unicode="&#x201d;" horiz-adv-x="716" d="M90 868v383h225l-18 -383h-207zM418 1251h225v-383h-207z" />
<glyph unicode="&#x202f;" horiz-adv-x="319" />
<glyph unicode="&#x205f;" horiz-adv-x="399" />
<glyph unicode="&#x20ac;" horiz-adv-x="1345" d="M102 461v137h150v43v29.5t2 17.5h-152v135h185q23 66 59.5 123.5t89.5 110.5q86 86 205 135t260 49q76 0 165 -23.5t185 -66.5l-73 -170q-86 39 -156 61.5t-121 22.5q-129 0 -230.5 -67.5t-154.5 -174.5h571v-135h-620q-2 -2 -2 -16.5v-30.5v-43h622v-137h-593 q45 -131 152.5 -215t254.5 -84q104 0 279 84l71 -170q-96 -45 -185 -69.5t-165 -24.5q-141 0 -260 50t-205 136q-59 61 -103 136t-63 157h-168z" />
<glyph unicode="&#xe000;" horiz-adv-x="1249" d="M0 0v1249h1249v-1249h-1249z" />
</font>
</defs>
</svg>
